<?xml version="1.0" encoding="UTF-8"?>
<svg id="Layer_1" xmlns="http://www.w3.org/2000/svg" xmlns:xlink="http://www.w3.org/1999/xlink" version="1.1" viewBox="0 0 169.29 189.86">
  <!-- Generator: Adobe Illustrator 29.2.1, SVG Export Plug-In . SVG Version: 2.1.0 Build 116)  -->
  <defs>
    <style>
      .st0 {
        fill: none;
      }

      .st1 {
        fill: #289cd3;
      }

      .st2 {
        fill: #606060;
      }

      .st3 {
        fill: #fff;
      }

      .st4 {
        fill: #80b841;
      }

      .st5 {
        fill: #662d81;
      }

      .st6 {
        clip-path: url(#clippath);
      }
    </style>
    <clipPath id="clippath">
      <rect class="st0" x="0" y="88.03" width="169.29" height="101.83"/>
    </clipPath>
  </defs>
  <rect class="st2" x="-477.75" y="59.92" width="317.39" height="296.48"/>
  <g>
    <rect class="st1" x="16.53" width="2.92" height="119.84"/>
    <rect class="st5" x="10.7" width="2.92" height="119.84"/>
    <rect class="st4" x="4.86" width="2.92" height="119.84"/>
    <polygon class="st3" points="4.84 130.93 4.84 144.21 0 144.21 0 157.24 4.84 157.24 4.84 188.49 19.46 188.49 19.46 157.24 27.79 157.24 27.79 144.21 19.46 144.21 19.46 130.93 4.84 130.93"/>
    <polygon class="st3" points="153.06 144.21 142.63 168.2 132.29 144.21 123.09 144.21 112.76 167.51 102.82 144.21 86.5 144.21 107.74 188.48 117.67 188.48 127.53 164.22 137.86 188.48 147.64 188.48 169.29 144.21 153.06 144.21"/>
    <g class="st6">
      <path class="st3" d="M66.05,148.61c-3.37-3.85-7.64-5.77-12.83-5.77-3.08,0-5.88.61-8.43,1.84-2.57,1.26-4.77,2.91-6.59,5.06-1.84,2.13-3.24,4.6-4.25,7.45-1,2.87-1.49,5.86-1.49,9.02,0,3.35.52,6.46,1.57,9.33,1.05,2.87,2.51,5.38,4.41,7.51,1.86,2.13,4.08,3.79,6.61,5,2.53,1.21,5.31,1.82,8.33,1.82,5.34,0,9.56-2.11,12.66-6.3v4.92h14.73v-71.63h-14.73v31.76ZM65.78,170.26c-.5,1.21-1.17,2.28-2.03,3.2-.82.92-1.82,1.65-2.97,2.16-1.15.52-2.36.79-3.66.79s-2.61-.27-3.76-.79c-1.17-.5-2.16-1.24-2.99-2.16-.84-.92-1.51-1.99-1.97-3.24-.5-1.24-.73-2.57-.73-4.02,0-1.36.25-2.66.77-3.83.5-1.19,1.17-2.22,2.01-3.16.84-.92,1.82-1.63,2.99-2.15,1.15-.5,2.37-.77,3.68-.77s2.51.27,3.66.77c1.15.52,2.15,1.23,2.97,2.15.86.94,1.53,2.01,2.03,3.24.52,1.23.77,2.55.77,3.93s-.25,2.68-.77,3.87"/>
    </g>
  </g>
</svg>